# xmcd
#
# Track frame offsets:
#	183
#	19023
#	37610
#	58345
#	73218
#	84698
#	104080
#	121978
#	172303
#	186905
#	199203
#
# Disc length: 2821 seconds
#
# Revision: 0
# Processed by: cddbd v1.4PL0 Copyright (c) Steve Scherf et al.
# Submitted via: dBpowerAMP V4.0
#
DISCID=a40b030b
DTITLE=Citizen Kane - Ghinocerous
DYEAR=1900
DGENRE=R&B
TTITLE0=Ghinocerous
TTITLE1=The Bottle
TTITLE2=City Streets
TTITLE3=Tell Mama
TTITLE4=Helping Hand
TTITLE5=Nearly
TTITLE6=Stand Back
TTITLE7=16 Men
TTITLE8=Flip Flop Fish Fry
TTITLE9=The Letter Song
TTITLE10=Let The Good Times Roll
EXTD=
EXTT0=
EXTT1=
EXTT2=
EXTT3=
EXTT4=
EXTT5=
EXTT6=
EXTT7=
EXTT8=
EXTT9=
EXTT10=
PLAYORDER=
